PathFileType	4	(X/Y/Z)	C:/Users/beibeiliu/ov580/test_trc/User3\out2_training_dense_right.trc
DataRate	CameraRate	NumFrames	NumMarkers	Units	OrigDataRate	OrigDataStartFrame	OrigNumFrames
120	120	14	19	mm	120	376	500
Frame#	Time	ThumbCMC			ThumbMCP			ThumbIP			ThumbTip			IndexMCP			IndexPIP			IndexTip			MiddleMCP			MiddlePIP			MiddleTip			RingMCP			RingPIP			RingTip			PinkyMCP			PinkyPIP			PinkyTip			BackHand1			BackHand2			BackHand3	
		X0	Y0	Z0	X1	Y1	Z1	X2	Y2	Z2	X3	Y3	Z3	X4	Y4	Z4	X5	Y5	Z5	X6	Y6	Z6	X7	Y7	Z7	X8	Y8	Z8	X9	Y9	Z9	X10	Y10	Z10	X11	Y11	Z11	X12	Y12	Z12	X13	Y13	Z13	X14	Y14	Z14	X15	Y15	Z15	X16	Y16	Z16	X17	Y17	Z17	X18	Y18	Z18	
375	3.125	95.514	11.7232	40.5669	77.6571	-2.68652	16.5853	60.9028	-13.4175	-8.8614	57.5116	-24.7807	-29.851	91.7239	11.4715	-35.5072	75.4178	-2.5535	-55.2099	69.0549	-25.884	-72.722	117	12.2449	-47.9745	106.772	-0.270443	-70.9088	99.3335	-31.3111	-89.7185	137.387	7.5329	-40.5289	136.527	-6.35564	-67.0671	126.763	-30.8696	-84.3921	159.012	-5.50031	-24.5424	165.686	-19.4576	-45.3093	164.576	-38.6386	-62.1992	146.728	24.9404	8.83607	153.691	28.9782	36.6194	117.522	34.6809	25.8016	
376	3.13333	92.19	9.95546	37.9641	75.6862	-9.48633	21.1692	65.2154	-24.1516	-7.47361	63.2467	-39.2271	-27.5034	87.1697	10.5179	-37.5676	73.3443	-5.51057	-57.1837	65.1747	-23.3416	-68.2761	119.605	15.0629	-45.2019	109.119	5.03	-72.6691	97.9148	-19.8483	-95.9582	135.706	6.10804	-40.9034	135.91	-7.10653	-63.4597	127.113	-28.7896	-79.0591	155.383	-11.6351	-26.7832	159.101	-31.7606	-42.1308	149.333	-55.1786	-51.0583	148.535	21.2778	12.4489	153.608	27.6881	41.0919	120.885	35.0596	23.7146	
377	3.14167	91.7977	8.75207	42.7273	76.2438	-12.7837	18.4518	70.6525	-29.9374	-3.58989	72.4123	-47.1335	-24.1744	86.8956	13.2807	-34.7369	74.5762	-2.08596	-57.0546	67.8915	-20.4365	-69.4965	117.598	19.4238	-44.2076	112.969	9.13889	-73.7348	102.205	-10.1184	-96.1963	139.356	3.91404	-34.5981	133.397	-12.29	-64.2652	124.933	-34.6203	-74.9305	153.35	-15.09	-21.3783	147.914	-38.6286	-37.2056	135.854	-57.1534	-39.5709	147.337	21.142	11.489	154.907	26.7156	38.4944	118.528	36.5454	29.5979	
378	3.15	92.8074	9.69478	43.6968	73.7582	-15.16	23.273	72.8559	-34.7573	-3.73584	81.0709	-49.1811	-17.5775	89.0015	19.187	-31.0258	75.7947	4.85601	-56.8876	61.8896	-15.7907	-72.1979	117.533	21.5187	-40.9632	116.534	13.5123	-69.4846	106.275	-5.94429	-94.7756	134.514	3.89221	-33.3804	132.778	-16.8642	-60.4812	118.835	-41.8351	-67.3647	149.455	-18.5842	-20.9214	139.511	-40.1454	-30.5756	125.922	-63.3274	-22.6215	145.705	22.0295	12.5106	150.933	30.1054	44.7714	119.088	35.6509	27.5424	
379	3.15833	87.1875	11.4322	40.5974	79.57	-14.1326	20.297	74.7163	-34.5118	1.69235	84.4916	-50.7007	-14.8639	92.647	22.2364	-31.7383	76.8803	13.7062	-55.2107	65.1777	-4.91636	-74.8276	123.056	20.8209	-42.028	116.909	12.6884	-68.613	109.387	-9.03706	-94.0477	132.667	1.31988	-34.9245	128.339	-17.7567	-54.6208	118.523	-48.0937	-54.5901	149.476	-21.257	-16.7005	133.603	-44.6873	-22.8979	116.74	-62.1764	-10.1945	149.695	23.3066	14.5912	154.452	28.5753	39.802	119.937	36.3064	32.1446	
380	3.16667	87.4435	13.784	46.832	79.3727	-13.6204	21.4037	71.6105	-34.2874	2.66985	84.0073	-51.8897	-15.3532	91.8114	26.2626	-34.8301	76.8213	21.334	-55.1365	66.8026	4.18162	-77.7499	120.571	21.238	-39.8552	115.399	11.1452	-69.4395	102.436	-14.678	-93.1193	133.811	-0.921616	-35.4569	126.724	-24.2991	-49.8728	109.837	-49.4062	-43.7396	144.598	-17.2046	-14.6426	129.539	-45.5719	-15.9272	116.565	-56.6044	0.752108	143.471	25.484	14.9961	151.529	29.777	41.1764	116.348	41.331	28.4617	
381	3.175	88.0649	15.8175	46.1278	76.8107	-11.7781	21.5482	68.6987	-33.4972	4.37606	80.2072	-51.6871	-16.3464	88.8414	29.6455	-28.6532	75.9124	25.2788	-57.5082	61.4342	14.8989	-77.0954	117.339	23.7338	-39.6715	110.747	9.01853	-69.4671	99.9251	-17.6557	-84.4738	128.768	-1.02517	-34.4116	124.219	-27.7231	-45.7094	106.146	-51.8293	-31.5234	141.688	-18.1962	-15.478	128.603	-39.9307	-14.6277	115.828	-52.8563	6.54459	146.208	29.4638	12.3529	152.145	33.9842	41.7242	115.593	43.9988	30.4975	
382	3.18333	84.372	17.5608	43.0075	72.8197	-7.43041	24.4904	64.606	-28.0937	2.6304	72.4238	-45.102	-13.9155	87.098	32.3142	-29.4956	74.5497	30.5901	-55.2671	61.8416	22.8427	-74.5836	112.997	24.2203	-37.7047	104.2	9.54839	-64.8769	97.1098	-25.2026	-76.4909	131.556	-0.0668222	-31.2601	121.932	-29.2941	-42.7666	109.997	-53.8522	-24.69	144.592	-12.3586	-14.3801	131.723	-39.0983	-15.6304	114.435	-48.4576	4.22748	145.927	29.5904	12.6519	152.647	36.0609	45.2027	113.6	45.6659	31.8114	
383	3.19167	88.5727	20.6227	47.8328	71.1234	-1.67593	25.7459	60.2721	-20.3257	4.27475	55.2359	-36.6001	-11.4356	83.9054	34.8254	-27.5813	73.5357	31.6223	-54.699	61.9447	24.9433	-77.9747	108.263	21.627	-40.802	97.1303	2.06192	-63.4077	91.1093	-37.5089	-62.2719	128.664	2.74842	-32.2397	119.256	-28.2557	-42.2696	110.015	-49.7652	-27.59	144.782	-9.9968	-20.5157	135.229	-35.4253	-22.9126	116.213	-49.5802	-7.67042	140.443	35.3578	13.15	150.765	39.1967	44.0641	115.392	46.9284	33.4934	
384	3.2	86.0381	23.362	47.7938	65.0737	5.80908	25.5351	54.8429	-8.21245	8.14246	44.983	-20.8353	-11.484	80.7026	34.8534	-26.8504	67.3977	30.9746	-49.1328	58.3341	23.7855	-73.2873	101.461	18.6173	-40.1402	91.1391	-8.67978	-57.6136	86.3265	-42.6552	-49.7023	124.182	7.37536	-29.8531	119.663	-19.3303	-44.6635	107.494	-47.8075	-30.0871	147.509	0.0378891	-22.9717	138.694	-23.1787	-34.0301	126.016	-48.7358	-27.367	140.197	38.008	10.3158	146.795	42.1902	43.276	110.976	49.5963	31.3602	
385	3.20833	83.3788	24.7301	45.6111	66.8857	11.7982	27.1779	48.6547	1.6353	4.52306	38.6192	-9.23627	-11.8031	81.2551	31.327	-27.6664	66.7356	24.658	-53.7641	53.4112	17.1554	-73.6159	103.305	15.1645	-39.769	94.1977	-15.6001	-54.0207	86.3442	-46.7733	-41.1138	122.415	9.94448	-32.3765	119.042	-15.2518	-47.2572	114.019	-46.0728	-37.5139	150.757	7.14481	-23.0983	148.1	-11.0231	-40.488	139.494	-34.3634	-48.1857	137.821	42.4242	13.8793	144.944	43.9055	38.8029	106.848	50.3871	32.456	
386	3.21667	84.2988	25.8357	45.8543	63.2978	15.3567	24.9582	50.4213	7.48996	1.3589	36.3005	0.036948	-15.0957	76.3111	29.0801	-28.8865	61.9651	17.9533	-50.6064	51.8969	7.31313	-68.8623	102.038	12.4991	-40.7167	89.6564	-12.5005	-50.5408	86.1927	-51.8932	-38.0717	124.146	11.4462	-36.2824	117.106	-12.3041	-51.2195	113.113	-42.3304	-45.5777	147.689	13.0355	-20.4283	155.921	-3.17051	-42.245	151.714	-22.6894	-57.9836	132.483	41.4239	13.4629	141.249	46.9718	40.0308	106.191	48.3821	34.7473	
387	3.225	82.8052	26.8885	49.5094	67.334	16.2902	28.3042	49.8206	11.0791	4.61726	35.3967	3.90289	-11.7758	77.7969	24.8428	-28.9617	61.6729	8.81417	-50.1498	57.6318	-4.52019	-67.0798	97.1741	16.4592	-34.9628	91.2634	-14.4667	-51.8117	89.6007	-50.0757	-44.8539	121.119	15.7656	-34.1676	116.228	-6.96291	-53.438	115.699	-35.6025	-54.6907	149.157	15.5796	-23.3568	157.722	3.19175	-43.0947	157.762	-6.11981	-60.0702	130.702	43.3598	11.429	140.101	47.2791	40.1147	108.022	50.8529	31.5767	
388	3.23333	83.2128	27.2092	48.5778	64.0216	18.1286	23.7588	47.6597	11.469	4.26848	34.0409	6.32091	-11.8962	72.4397	21.1928	-28.0717	64.1192	3.59869	-45.4954	59.2244	-15.37	-60.7657	96.4739	18.3881	-34.7046	88.1953	-9.69266	-53.0659	86.5876	-43.5457	-53.1943	122.892	17.6071	-37.0829	119.319	1.05264	-54.0426	113.079	-27.6794	-61.4271	151.538	17.3605	-17.7251	155.04	8.44104	-40.7442	162.704	-3.87479	-63.1034	136.471	43.1303	16.6524	141.13	48.9397	42.6973	107.097	51.2591	31.7308	
